<?xml version="1.0" encoding="UTF-8" standalone="no"?>
<!DOCTYPE svg PUBLIC "-//W3C//DTD SVG 1.1//EN" "http://www.w3.org/Graphics/SVG/1.1/DTD/svg11.dtd">
<svg width="100%" height="100%" viewBox="0 0 800 800" version="1.1" xmlns="http://www.w3.org/2000/svg" xmlns:xlink="http://www.w3.org/1999/xlink" xml:space="preserve" xmlns:serif="http://www.serif.com/" style="fill-rule:evenodd;clip-rule:evenodd;stroke-linejoin:round;stroke-miterlimit:1.41421;">
    <g>
        <path d="M262.553,547.318C267.712,546.367 272.989,545.919 278.137,545.016C289.529,543.017 301.204,544.828 311.972,542.849C314.509,542.382 317.874,541.337 317.874,541.337C318.377,541.272 318.87,541.183 319.348,541.07C320.281,541.233 321.257,541.118 322.163,540.665C324.363,539.565 324.909,536.623 324.909,536.623C325.2,530.398 329.374,520.858 324.531,515.215C320.648,510.883 316.92,504.823 320.894,501.205C325.01,497.459 332.443,500.316 337.229,504.073C340.88,506.939 341.365,511.113 339.832,514.343C339.682,514.659 339.524,514.972 339.364,515.283C339.227,515.546 339.088,515.809 338.947,516.07C338.232,517.389 337.483,518.69 336.819,520.035C334.017,525.715 334.578,532.431 338.571,536.855C341.043,539.593 344.442,540.324 347.871,540.613C359.98,541.634 372.434,539.506 384.737,538.237C386.096,538.098 387.461,538.032 388.811,537.964C388.859,540.223 389.216,542.596 389.899,544.684C390.034,545.097 390.064,545.088 390.448,546.023C392.225,550.343 392.247,555.468 392.109,560.296C392.021,563.345 391.753,566.796 389.771,566.828C389.593,566.831 389.416,566.817 389.24,566.792C382.954,565.922 377.431,558.609 369.942,557.987C364.028,557.495 359.913,561.823 357.877,566.507C355.675,571.575 354.401,577.608 354.588,583.412C354.661,585.672 355.682,588.467 355.682,588.467C357.729,592.506 360.85,596.094 364.985,597.708C378.538,602.994 389.327,588.666 399.349,589.444C399.349,589.444 399.629,591.031 399.726,592.112C401.141,607.923 398.138,623.517 397.104,638.995C353.064,613.713 304.67,582.068 262.553,547.318Z" style="fill:rgb(0,112,206);"/>
        <path d="M533.389,417.83C532.222,418.298 530.832,418.837 529.597,419.264C516.28,423.868 501.796,427.678 488.704,425.152C483.58,424.164 478.35,421.34 476.618,415.752C472.925,403.84 483.149,390.12 477.092,382.867C476.536,382.202 475.853,381.653 475.118,381.198C471.872,379.19 466.034,380.806 461.913,382.926C456.351,385.786 461.438,396.941 462.669,402.932C463.731,408.102 463.611,414.058 459.821,418.21C456.828,421.489 452.706,419.811 449.508,418.779C441.255,416.152 432.716,414.455 424.545,411.663C421.462,411.014 418.125,411.23 414.838,411.198C409.691,411.148 404.501,411.396 399.371,411.366C399.673,412.343 399.777,413.427 399.635,414.562C404.372,425.409 398.41,439.59 400.934,450.91C401.167,451.956 401.79,453.391 401.79,453.391C409.089,451.756 416.27,448.991 423.858,449.185C432.558,449.408 440.409,456.557 444.392,465.049C446.394,469.316 446.954,474.816 443.706,478.763C438.462,485.137 427.839,484.606 418.558,483.548C416.148,483.273 413.744,482.947 411.337,482.64C407.474,482.157 403.467,481.474 399.837,482.076L399.781,482.086C399.026,497.247 398.524,512.425 398.216,527.662C398.699,527.641 399.183,527.611 399.661,527.562C411.32,526.364 423.158,524.034 434.838,527.173C435.282,527.292 435.724,527.423 436.16,527.569C436.534,527.693 436.904,527.828 437.27,527.975C441.005,529.471 444.111,532.805 444.731,536.859C445.984,545.057 440.671,553.622 441.567,562.351C442.015,566.717 449.263,565.852 455.022,564.752C459.724,563.854 465.119,561.74 466.535,558.463C468.324,554.323 465.717,549.24 466.794,544.147C468.09,538.017 473.275,533.311 479.859,531.801C496.233,528.044 513.681,532.737 532.019,531.16C533.897,530.998 536.631,530.485 536.631,530.485C537.087,525.981 536.807,521.261 537.949,517.042C539.112,512.504 540.068,507.457 538.853,503.096C538.175,500.805 534.023,499.751 531.475,499.664C530.938,499.646 530.4,499.645 529.862,499.658C521.775,499.845 513.906,502.425 505.536,502.354C499.719,502.305 493.382,500.27 490.493,494.45C486.709,486.827 488.716,477.173 491.198,470.577C492.573,466.923 495.297,463.832 498.976,462.222C510.925,456.994 525.948,465.961 534.413,459.263C534.413,459.263 535.022,452.999 534.936,447.625C534.778,437.673 533.813,427.802 533.389,417.83Z" style="fill:rgb(226,0,0);"/>
        <path d="M154.224,415.537C170.153,417.246 185.988,422.202 202.282,422.437C203.578,422.448 205.86,422.2 205.86,422.2C206.762,421.867 206.36,422.048 207.073,421.606L207.603,421.199C208.348,420.496 208.048,420.808 208.497,420.165C208.497,420.165 208.908,419.477 209.055,419.034C209.616,417.34 209.212,415.842 208.756,414.325C206.739,407.768 204.389,401.069 203.408,394.161C202.738,389.446 201.724,383.294 205.568,379.463C209.726,375.317 217.52,377.32 223.863,379.218C227.454,380.292 226.812,382.324 226.34,384.363C224.018,394.382 215.76,403.312 216.263,413.188C216.527,418.369 220.871,422.321 225.729,424.39C237.654,429.466 248.961,421.728 260.789,418.993C261.75,418.77 262.741,418.674 263.707,418.581C264.694,430.907 267.229,443.289 267.653,455.737C267.75,458.588 267.42,461.921 267.42,461.921C265.87,462.561 264.293,463.282 263.409,462.59C258.992,459.135 255.515,452.849 249.599,451.655C240.215,449.761 232.801,457.319 227.902,464.963C223.832,471.314 221.035,480.252 223.677,488.358C225.183,492.977 228.94,496.359 233.371,497.868C241.693,500.703 251.261,498.675 260.298,496.614C263.371,495.907 266.894,495.175 266.894,495.175C267.78,497.41 267.671,499.951 267.395,502.391C265.966,515.014 260.291,525.113 257.103,535.769C256.977,536.204 256.976,536.205 256.868,536.624C256.868,536.624 256.263,538.508 255.806,539.814C255.343,541.115 255.313,540.901 255.218,541.18C218.243,509.79 186.786,476.069 168.449,442.349C163.235,433.399 158.493,424.45 154.224,415.537Z" style="fill:rgb(254,231,0);"/>
        <path d="M389.385,413.949C381.755,413.441 374.242,411.635 367.05,412.566C362.254,413.186 357.72,415.197 353.435,417.347C349.665,419.311 350.253,425.22 350.698,429.375C351.55,437.339 355.275,446.306 348.926,451.318C345.366,454.128 340.398,454.365 336.24,455.573C329.712,457.415 322.049,457.63 318.715,451.238C315.813,445.672 317.157,439.075 318.166,433.256C319.098,427.875 321.202,422.216 319.96,417.307C319.078,413.821 307.556,414.937 297.993,414.964C289.898,414.996 281.721,414.535 273.706,415.574C273.802,416.868 273.858,418.191 274.014,419.505C275.714,433.624 278.665,447.951 277.577,461.906C277.265,465.898 276.397,469.198 270.447,471.479C265.141,473.513 258.796,473.01 254.272,467.402C251.439,463.851 248.997,457.795 241.642,464.112C235.967,468.986 232.166,476.278 232.845,483.531C233.4,489.449 243.196,489.654 251.078,488.299C257.242,487.239 262.973,484.609 269.022,484.84C276.1,485.301 278.353,496.694 277.141,504.981C275.985,512.883 272.787,520.379 270.699,528.127C270.266,529.673 270.072,530.149 269.69,531.134C268.994,532.927 268.166,534.675 267.454,536.453C280.016,534.686 293.313,533.603 306.471,533.43C309.333,533.37 312.171,532.684 314.948,531.763L315.462,531.702C316.097,528.275 317.005,524.851 316.634,521.436C316.634,521.436 313.531,518.136 311.869,515.517C308.207,509.746 307.629,501.815 312.343,495.776C315.491,491.744 320.619,489.605 325.906,489.649C340.089,489.895 355.005,502.182 349.853,516.296C348.564,519.825 346.068,522.84 344.974,526.417C344.486,528.009 346.059,530.226 346.059,530.226C349.601,531.343 353.746,530.848 357.847,530.646C367.986,530.147 378.16,528.37 388.193,527.758C388.422,511.514 388.753,495.321 389.926,479.329C390.027,477.943 390.467,476.825 390.467,476.825C390.811,476.153 390.506,476.481 391.237,475.645C395.524,470.744 404.491,474.754 411.802,475.645C420.052,476.678 429.358,476.343 435.461,472.811C437.017,471.911 436.737,466.094 435.461,464.112C432.954,460.217 427.757,455.728 422.932,455.573C415.741,455.343 409.425,462.335 402.314,463.475C398.325,464.114 394.51,461.64 392.473,457.082C387.509,445.976 393.15,432.923 391.234,421.352C391.11,420.605 390.941,419.863 390.693,419.147C389.645,416.116 389.567,415.799 389.579,414.846C389.579,414.846 389.481,414.499 389.385,413.949Z" style="fill:rgb(0,186,0);"/>
        <path d="M391.16,286.366C390.64,286.48 390.093,286.551 389.526,286.573C376.822,287.118 364.153,289.672 351.308,286.484C346.089,285.188 339.211,280.018 342.392,274.725C347.769,265.776 351.523,258.189 349.524,249.404C349.115,247.611 349.296,245.786 347.319,244.825C343.026,243.072 330.59,248.413 327.682,253.013C323.518,259.601 332.158,267.68 334.849,277.393C335.913,281.235 332.541,285.211 329.547,287.756C329.547,287.756 326.518,288.99 323.124,289.058C308.964,289.343 294.705,288.956 280.617,288.845C279.02,288.825 277.422,288.752 275.843,288.533C275.843,288.533 275.28,292.772 274.734,296.284C272.869,308.108 269.933,320.399 274.012,331.514C280.335,330.456 285.891,326.151 293.087,326.03C293.327,326.029 293.567,326.03 293.807,326.035C301.719,326.246 308.998,332.133 313.409,339.129C315.879,343.047 316.976,348.502 313.85,352.459C309.34,358.169 308.054,366.762 298.89,367.381C291.048,367.911 284.216,362.07 277.613,360.545C276.756,360.347 275.882,360.273 275.208,361.181C271.657,365.967 271.881,373.164 271.844,379.548C271.794,388.242 272.794,396.948 272.989,405.678C276.602,405.288 280.756,405.232 284.806,405.131C296.597,404.837 308.724,403.277 319.753,406.134C324.035,407.243 328.101,409.884 329.441,414.101C332.369,423.316 327.103,433.656 327.074,443.208C327.069,444.68 327.656,446.739 327.656,446.739C329.781,446.901 331.965,446.475 334.019,445.789C335.423,445.341 335.736,445.295 336.581,445.116C338.595,444.691 340.839,444.596 342.392,443.698C342.79,443.463 341.77,437.91 341.16,433.648C340.992,432.459 340.838,431.268 340.716,430.074C340.564,428.582 340.461,427.083 340.441,425.581C340.357,419.034 342.34,411.852 348.882,408.443C355.439,405.153 362.376,402.469 369.782,402.376C370.079,402.375 370.079,402.375 370.376,402.376C375.386,402.436 380.371,403.141 385.385,403.625C385.043,398.812 386.814,393.405 387.555,387.641C388.334,381.477 389.533,375.188 388.547,369.165C388.284,367.565 387.272,367.353 386.312,366.919C376.053,362.277 362.668,364.028 354.027,356.637C349.887,353.097 347.63,347.42 346.427,342.284C345.228,337.164 346.016,331.077 350.445,327.57C358.891,320.884 373.03,325.374 382.316,322.129C387.309,320.384 388.954,312.206 390.028,304.821C390.915,298.717 391.125,292.554 391.16,286.366Z" style="fill:rgb(0,112,206);"/>
        <path d="M647.452,405.791C642.003,405.617 636.554,405.058 631.095,404.762C618.201,404.062 602.925,404.791 592.926,413.603C588.192,417.775 587.837,423.341 588.346,428.889C588.872,434.392 588.851,441.807 588.332,441.869C582.63,442.487 573.114,438.045 573.856,432.285C574.649,426.128 580.741,420.751 581.83,413.936C583.502,403.462 573.321,396.944 564.142,396.848C564.014,396.847 563.886,396.847 563.758,396.848C555.351,396.916 547.515,400.487 539.589,401.844C539.182,390.835 537.961,379.63 539.455,368.728C540.032,364.512 541.873,360.458 541.873,360.458C544.752,361.007 547.499,362.082 550.245,363.161C560.478,367.178 572.257,361.749 582.098,355.556C588.197,351.719 592.013,344.969 590.601,338.296C589.553,333.342 587.189,327.845 582.996,324.301C570.454,313.701 559.223,328.738 548.49,326.306C544.836,325.478 543.149,322.244 541.993,318.961C538.447,308.884 538.267,297.811 538.252,287.038C539.049,287.04 549.073,287.633 551.509,287.979C563.579,289.691 576.603,291.416 588.948,289.674C592.167,289.219 595.455,287.263 597.654,284.731C600.093,281.922 601.192,278.405 599.368,275.443C595.058,268.441 597.105,262.528 599.368,257.549C602.25,251.211 607.937,249.265 611.48,251.958C616.986,258.936 615.331,267.832 611.48,275.443C609.728,279.433 608.459,284.835 609.424,285.83C613.603,290.136 619.214,292.894 624.912,294.76C640.138,299.747 656.099,299.496 671.89,299.457C672.049,332.215 663.903,368.562 647.452,405.791Z" style="fill:rgb(0,186,0);"/>
        <path d="M125.783,286.862C135.85,286.621 145.793,284.316 155.878,283.338C165.057,282.448 175.346,281.474 182.351,286.747C184.682,288.501 185.231,290.854 185.494,293.32C186.767,305.263 181.159,319.883 187.778,329.664C191.184,334.698 197.613,335.871 203.142,335.023C208.752,334.163 215.367,331.898 218.786,326.769C225.806,316.236 217.775,304.293 216.251,292.778C216.018,291.022 216.811,290.159 217.962,289.179C231.445,277.701 249.397,281.741 266.326,281.954C266.016,289.843 264.301,297.543 263.2,305.362C261.728,315.819 261.106,327.453 265.61,337.357C267.042,340.507 269.844,341.844 272.813,341.63C280.564,341.566 286.323,336.007 293.343,336.029C294.784,336.034 296.574,336.526 296.574,336.526C300.118,338.451 305.102,342.451 305.85,346.418C307.014,351.762 305.465,358.605 297.736,357.413C291.008,356.374 284.975,351.287 277.994,350.473C271.735,349.743 266.709,354.519 264.566,360.087C258.725,375.266 262.568,391.009 262.995,406.394C263.013,407.169 263.033,407.813 263.077,408.367C258.715,408.63 254.443,410.314 250.244,411.79C244.171,413.944 237.046,417.867 230.164,415.391C228.341,414.736 226.174,413.932 226.252,412.313C226.714,402.73 238.812,391.603 236.425,379.177C234.655,369.967 223.008,367.347 212.853,367.254C210.132,367.248 207.4,367.573 204.837,368.468C197.28,371.108 193.414,379.022 193.017,386.477C192.544,395.381 194.91,403.883 197.576,412.237C183.033,411.19 168.947,406.909 154.44,405.478C152.768,405.314 151.044,405.11 149.385,404.991C131.046,363.201 123.179,322.547 125.783,286.862Z" style="fill:rgb(226,0,0);"/>
        <path d="M528.256,287.018C516.419,287.03 504.573,287.291 492.819,289.084C490.385,289.456 487.871,289.678 485.691,290.853C485.324,291.051 484.539,295.419 485.385,299.19C486.872,305.681 488.845,312.821 484.217,318.249C478.4,325.07 467.425,325.991 458.932,325.023C452.408,324.28 446.007,320.287 444.818,313.11C443.079,302.608 450.738,292.675 452.18,283.431C452.38,282.147 452.548,280.631 451.579,280.042C449.446,278.745 446.536,278.491 443.83,278.134C429.709,276.271 415.374,280.402 401.162,280.883C401.224,293.347 401.28,306.032 397.338,317.37C395.062,323.916 390.885,330.254 384.048,332.046C375.65,334.245 366.056,331.497 357.965,334.698C353.899,336.308 356.789,345.912 360.6,349.1C369.715,356.723 387.443,352.004 395.923,361.602C399.826,366.019 398.994,372.66 398.56,378.621C398.019,386.056 396.745,393.442 395.938,400.839L395.901,401.186C401.263,401.252 406.605,401.171 411.934,401.181C417.817,401.2 423.936,400.93 428.923,402.585C436.928,405.204 445.239,406.859 453.253,409.481C454.44,399.687 444.479,388.972 451.815,378.676C458.304,369.568 474.016,368.98 479.904,372.408C484.073,374.836 487.209,378.887 488.324,383.764C490.406,392.874 485.644,402.342 485.912,410.967C486.067,415.989 493.928,416.199 501.243,415.495C511.081,414.547 521.132,412.494 529.881,408.544C529.802,408.167 529.774,407.783 529.792,407.402C529.737,407.074 529.706,406.733 529.702,406.382C529.511,392.329 527.237,378.128 530.108,364.045C531.366,357.877 534.128,350.338 540.533,350.297C548.046,350.249 554.584,355.423 561.309,353.988C567.426,352.683 573.333,349.784 578.263,346.106C581.539,343.661 581.547,338.267 577.573,333.05C574.652,329.215 567.782,332.407 562.58,334.218C554.936,336.845 546.192,338.197 539.506,333.033C532.489,327.614 530.907,318.09 529.734,310.106C528.611,302.47 528.301,294.743 528.256,287.018Z" style="fill:rgb(254,231,0);"/>
        <path d="M126.83,276.664C131.231,243.671 145.104,215.508 168.449,195.474C192.726,174.64 227.247,162.598 263.367,163.054C263.548,167.039 265.606,171.546 268.055,175.307C268.055,175.307 268.334,177.022 268.376,178.218C268.806,190.705 268.071,203.266 265.713,215.362L265.707,215.361C255.734,214.758 244.369,211.977 234.726,216.758C228.442,219.875 224.772,226.375 224.077,233.216C223.87,235.245 223.556,237.337 224.257,239.124C226.039,243.662 229.333,248.046 233.685,250.706C238.468,253.63 244.325,253.372 249.621,251.661C254.577,250.06 260.178,246.295 266.051,247.376C268.566,247.839 270.918,250.128 270.918,250.128C270.786,257.46 269.097,264.711 267.801,271.963C260.72,271.941 253.655,271.467 246.578,271.432C235.548,271.411 223.546,272.919 214.367,279.334C211.024,281.67 207.673,284.317 206.623,287.925C203.94,297.146 212.833,308.163 211.413,318.499C210.775,323.143 205.558,324.702 200.937,325.232C196.652,325.723 195.274,323.144 194.901,320.224C193.502,309.278 197.755,297.219 194.332,286.894C191.58,278.591 182.985,274.785 174.964,273.493C160.089,271.098 145.466,274.933 130.803,276.478C129.482,276.617 128.126,276.621 126.83,276.664Z" style="fill:rgb(254,231,0);"/>
        <path d="M533.362,163.061C532.566,163.931 532.055,165.105 532.064,166.527C532.096,172.225 532.725,177.847 533.13,183.508C533.768,192.409 534.793,202.694 529.295,210.442C528.5,211.561 527.641,212.695 526.421,213.131C520.874,215.116 514.571,213.435 508.557,212.955C499.902,212.264 496.852,215.692 492.435,220.758C489.002,224.696 490.599,234.182 492.435,238.668C492.659,239.216 492.903,239.756 493.162,240.289C499.635,253.589 509.84,254.093 519.241,251.738C523.261,250.716 526.905,248.817 530.031,250.309C530.478,250.522 530.947,250.607 531.063,251.876C531.75,259.398 526.624,268.597 527.634,277.095C523.606,277.139 519.579,277.216 515.552,277.348C503.689,277.738 492.094,277.244 482.168,281.466C474.926,284.547 473.881,293.324 475.472,300.679C476.394,304.878 478.51,310.24 476.245,312.107C472.519,315.179 462.693,317.346 456.893,314.321C454.928,313.296 454.426,310.977 454.691,308.799C455.892,298.934 463.557,289.385 462.168,279.74C461.387,274.316 456.641,270.82 451.47,269.456C434.506,264.981 417.594,270.39 400.619,270.898C400.99,265.384 401.81,259.901 402.173,254.408C402.231,253.519 402.154,252.69 401.957,251.942C402.205,247.169 402.817,242.406 403.147,237.632L403.162,237.399C436.426,185.829 486.224,163.795 533.362,163.061Z" style="fill:rgb(226,0,0);"/>
        <path d="M541.062,163.13C574.524,164.252 606.089,176.037 628.739,195.474C655.048,218.051 669.328,250.951 671.577,289.453C665.241,289.452 658.904,289.42 652.576,289.088C640.446,288.45 626.981,287.604 617.879,280.024L618.011,278.86C621.022,272.826 623.923,266.344 624.003,259.465C624.088,252.184 619.026,244.031 615.999,242.592C611.823,240.605 605.009,242.456 604.213,242.933C604.213,242.933 596.798,245.893 594.016,248.005C587.033,253.309 589.252,261.775 590.84,269.047C591.538,272.243 592.48,276.71 589.679,278.807C589.087,279.251 588.556,279.65 587.265,279.809C577.063,281.07 566.702,279.715 556.49,278.534C552.639,278.089 548.176,277.181 548.176,277.181C544.155,275.412 537.736,276.682 537.736,276.682C537.3,273.99 538.008,270.921 538.599,268.009C539.941,261.472 543.035,253.705 540.014,246.856C537.927,242.124 533.021,241.027 528.298,240.943C528.372,241.586 515.773,247.837 509.361,246.856C505.607,246.281 501.914,243.721 500.644,242.319C496.62,237.877 494.8,229.469 498.628,224.42C501.405,220.756 507.185,217.829 511.702,219.148C520.338,221.668 530.893,219.551 535.518,218.636C553.486,215.078 542.676,185.981 542.096,168.222C542.019,165.499 542.008,164.543 541.232,163.37C541.177,163.288 541.12,163.207 541.062,163.13Z" style="fill:rgb(0,112,206);"/>
        <path d="M273.603,163.519C317.369,166.943 362.272,188.998 393.22,236.162C392.855,242.41 391.938,248.588 391.854,254.82C391.849,255.36 391.909,255.878 392.024,256.365C391.841,258.251 391.575,260.138 391.38,262.025C390.82,267.442 390.847,272.015 391.532,275.362C391.38,275.847 391.286,276.29 391.229,276.625C390.953,276.562 390.786,276.537 390.786,276.537C383.739,276.617 376.618,277.553 369.497,277.772C362.714,277.98 356.006,278.549 350.874,275.754C350.427,275.511 349.798,275.461 350.022,274.155C351.099,267.876 355.675,262.361 357.971,256.164C360.159,250.259 360.265,243.481 356.278,239.17C351.729,234.251 344.648,234.168 338.339,235.834C331.586,237.617 324.273,240.212 320.086,246.092C316.501,251.128 317.385,257.243 319.595,262.392C321.501,266.833 326.057,272.246 324.749,277.302C324.553,278.059 323.911,279.036 323.911,279.036C310.335,279.396 296.698,278.977 283.064,278.856C280.994,278.841 278.914,278.943 276.902,278.576C276.902,278.576 276.855,278.482 276.767,278.325C277.521,271.102 279.449,264.087 280.355,256.937C280.8,253.426 281.424,249.9 280.58,246.636C279.462,242.319 273.127,238.347 267.33,237.451C259.586,236.254 252.39,240.756 244.893,242.624C237.207,244.539 233.917,236.037 233.917,236.037C233.957,234.379 234.139,232.708 234.636,231.12C235.775,227.488 239.203,225.282 242.68,224.549C243.097,224.461 243.516,224.387 243.936,224.323C244.442,224.247 244.949,224.187 245.458,224.14C256.21,223.14 264.086,227.975 271.28,224.542C273.869,223.306 274.866,220.499 275.436,217.736C278.143,204.606 278.892,190.964 278.357,177.523C278.19,173.329 276.326,169.682 276.326,169.682C275.225,167.863 274.149,165.73 273.603,163.519Z" style="fill:rgb(0,186,0);"/>
        <path d="M541.419,541.648C500.053,576.689 451.848,608.808 407.404,634.756C408.59,620.243 410.917,605.747 409.706,591.452C409.342,587.149 408.186,582.232 404.383,580.543C396.935,577.234 390.076,584.733 382.533,588.261C378.17,590.289 372.175,590.086 368.318,588.261C366.843,587.563 365.827,586.186 365.002,584.707C364.472,583.757 364.702,584.187 364.677,584.064C364.292,582.11 364.704,580.024 365.034,578.018C365.78,573.482 366.858,567.765 369.113,567.953C369.193,567.96 369.273,567.97 369.352,567.984C375.735,569.073 381.209,574.448 388.543,575.106C393.924,575.588 399.306,573.752 400.91,568.844C403.386,561.264 402.963,551.154 399.918,542.79C399.764,542.369 399.566,542.332 399.356,541.389C399.095,540.216 399.063,538.997 399.089,537.778C404.603,537.357 410.12,536.472 415.671,536.131C422.114,535.735 428.524,535.043 433.79,537.358C434.238,537.555 434.732,537.625 434.845,538.37C436.153,546.932 429.115,557.438 432.377,566.928C433.993,571.627 438.175,574.34 442.635,575.106C451.757,576.673 465.757,575.248 473.468,566.049C479.457,558.903 474.301,551.028 476.935,545.099C477.883,542.966 480.217,541.927 482.622,541.433C492.84,539.334 504.12,540.792 515.092,541.212C522.096,541.479 529.34,542.068 536.105,540.881C536.835,540.99 537.664,541.064 538.491,541.046C539.017,541.034 539.543,541.025 540.068,541.047C540.068,541.047 540.764,541.453 541.419,541.648Z" style="fill:rgb(254,231,0);"/>
        <path d="M546.482,532.652C546.615,531.602 546.675,530.52 546.758,529.461C547.058,525.515 547.486,520.067 547.486,520.067C549.871,511.742 550.964,500.056 544.397,494.09C535.82,486.297 523.609,490.254 512.35,491.809C506.968,492.553 499.718,492.977 498.863,488.079C498.03,483.302 498.629,471.905 504.946,470.832C515.082,469.11 530.166,474.589 539.835,467.696C543.715,464.93 544.516,460.996 544.785,456.922C545.644,443.915 544.272,430.835 543.51,417.783C543.388,415.643 543.333,413.307 542.972,411.26C548.505,410.002 554.13,407.993 559.85,407.171C565.679,406.333 572.952,408.34 571.85,412.872C570.435,418.689 565.554,423.488 564.216,429.442C562.056,439.052 568.647,444.915 575.46,448.654C579.782,451.025 586.621,453.476 592.195,451.118C597.568,448.845 599.175,443.046 599.151,437.922C599.126,432.74 596.534,425.32 598.507,422.079C602.569,417.994 608.195,415.992 613.784,415.155C623.591,413.687 633.266,414.984 642.943,415.581C638.68,424.479 633.945,433.414 628.739,442.349C611.161,474.672 581.529,506.995 546.537,537.266C546.725,536.211 546.788,535.084 546.775,534.021C546.758,533.544 546.655,533.083 546.482,532.652Z" style="fill:rgb(0,112,206);"/>
    </g>
</svg>
